HIERARCHY
ROOT Hips
{
	OFFSET 0.000000 0.000000 0.000000
	CHANNELS 6 Xposition Yposition Zposition Zrotation Yrotation Xrotation 
	JOINT LHipJoint
	{
		OFFSET 0.000000 0.000000 0.000000
		CHANNELS 3 Zrotation Yrotation Xrotation
		JOINT LeftUpLeg
		{
			OFFSET 1.363060 -1.794630 0.839290
			CHANNELS 3 Zrotation Yrotation Xrotation
			JOINT LeftLeg
			{
				OFFSET 2.448110 -6.726130 0.000000
				CHANNELS 3 Zrotation Yrotation Xrotation
				JOINT LeftFoot
				{
					OFFSET 2.562200 -7.039590 0.000000
					CHANNELS 3 Zrotation Yrotation Xrotation
					JOINT LeftToeBase
					{
						OFFSET 0.157640 -0.433110 2.322550
						CHANNELS 3 Zrotation Yrotation Xrotation
						End Site
						{
							OFFSET 0.000000 0.000000 0.000000
						}
					}
				}
			}
		}
	}
	JOINT RHipJoint
	{
		OFFSET 0.000000 0.000000 0.000000
		CHANNELS 3 Zrotation Yrotation Xrotation
		JOINT RightUpLeg
		{
			OFFSET -1.305520 -1.794630 0.839290
			CHANNELS 3 Zrotation Yrotation Xrotation
			JOINT RightLeg
			{
				OFFSET -2.542530 -6.985550 0.000000
				CHANNELS 3 Zrotation Yrotation Xrotation
				JOINT RightFoot
				{
					OFFSET -2.568260 -7.056230 0.000000
					CHANNELS 3 Zrotation Yrotation Xrotation
					JOINT RightToeBase
					{
						OFFSET -0.164730 -0.452590 2.363150
						CHANNELS 3 Zrotation Yrotation Xrotation
						End Site
						{
							OFFSET 0.000000 0.000000 0.000000
						}
					}
				}
			}
		}
	}
}
MOTION
Frames: 19
Frame Time: 0.008333
-13.720839 16.690657 0.309508 -0.502505 79.416816 20.905806 -8.848150 -0.487856 -0.070523 -16.684040 1.019483 -47.703033 -2.899137 0.536232 19.683314 0.864801 5.220529 2.160872 1.423500 0.000000 -11.523500 10.418499 -2.667014 -2.560744 6.305411 -4.457920 -5.464717 2.440020 -2.106041 28.076507 1.453960 16.480505 -0.191662 1.556800 0.000000 -70.691800
-13.574740 16.710650 0.316989 1.469607 79.293809 22.841454 -8.753422 -0.458204 -0.096032 -16.917623 0.570933 -47.297111 -2.836618 0.558957 20.522497 0.980819 5.817469 1.469963 1.460100 -0.000000 -11.862900 10.679278 -2.678113 -2.606354 5.462172 -4.724016 -6.604477 2.171110 -2.387383 30.493037 1.410158 16.854198 1.645142 2.106600 0.000001 -72.970800
-13.432493 16.733513 0.319909 3.061134 79.159627 24.403114 -8.656987 -0.430603 -0.122843 -17.118073 0.142424 -46.794421 -2.787795 0.557788 21.170470 1.100000 6.382437 0.621388 1.456299 -0.000000 -12.294100 10.919134 -2.665463 -2.650010 4.719507 -4.906923 -7.789114 1.883762 -2.650967 32.938462 1.340006 17.151612 3.693003 2.749500 -0.000001 -74.922400
-13.293940 16.758561 0.318378 4.314479 79.008262 25.627002 -8.564888 -0.404279 -0.156543 -17.297753 -0.236360 -46.193360 -2.753481 0.536189 21.615608 1.217709 6.904008 -0.302720 1.417200 0.000001 -12.743200 11.136223 -2.628562 -2.690672 4.066681 -5.011612 -9.004083 1.584051 -2.892966 35.394217 1.243303 17.387333 5.929399 3.477600 -0.000000 -76.433800
-13.158644 16.784992 0.311939 5.118741 78.832149 26.401982 -8.491611 -0.379724 -0.201123 -17.439752 -0.511279 -45.532375 -2.731835 0.503677 21.891717 1.325344 7.342743 -1.237633 1.344900 0.000000 -13.136000 11.316309 -2.570591 -2.720404 3.539214 -5.011588 -10.225950 1.280016 -3.106288 37.826546 1.121009 17.536677 8.309256 4.264000 0.000000 -77.360300
-13.026181 16.812287 0.301217 5.559230 78.633442 26.809607 -8.438364 -0.356339 -0.261129 -17.560598 -0.666291 -44.816925 -2.722237 0.463360 22.005089 1.417496 7.692587 -2.112723 1.253000 -0.000001 -13.423700 11.463849 -2.493338 -2.740104 3.115653 -4.926392 -11.446863 0.980652 -3.290632 40.220836 0.975813 17.596062 10.774381 5.075200 0.000000 -77.605900
-12.896180 16.839885 0.286661 5.657472 78.414951 26.868523 -8.409248 -0.333387 -0.338183 -17.661388 -0.679959 -44.071243 -2.722987 0.420911 21.987782 1.488135 7.936774 -2.881962 1.152000 0.000000 -13.575100 11.577926 -2.400914 -2.747873 2.796551 -4.764498 -12.655396 0.694638 -3.445488 42.558409 0.812348 17.533274 13.242122 5.857199 0.000000 -77.097800
-12.768159 16.867438 0.269119 5.502747 78.183717 26.665662 -8.401897 -0.309437 -0.432491 -17.754657 -0.553242 -43.307089 -2.733060 0.378996 21.863032 1.534375 8.074640 -3.514687 1.052900 0.000000 -13.586600 11.664595 -2.296865 -2.746097 2.562481 -4.552913 -13.847068 0.428752 -3.574267 44.828923 0.636136 17.312495 15.623463 6.547599 -0.000000 -75.855800
-12.641810 16.894712 0.249501 5.193217 77.949485 26.296883 -8.411794 -0.283257 -0.542545 -17.852034 -0.300300 -42.532178 -2.751362 0.338997 21.653113 1.555977 8.113348 -3.999953 0.963800 0.000000 -13.477400 11.730860 -2.184342 -2.739233 2.391544 -4.323329 -15.020081 0.186852 -3.682317 47.024409 0.452573 16.887189 17.829763 7.078900 0.000000 -74.002400
-12.516726 16.921578 0.228498 4.792927 77.724284 25.827832 -8.435704 -0.254155 -0.663835 -17.956002 0.057781 -41.760716 -2.776427 0.302263 21.386361 1.554584 8.060277 -4.350045 0.886900 -0.000000 -13.279700 11.780597 -2.066897 -2.731060 2.273746 -4.101998 -16.174566 -0.030538 -3.774732 49.136296 0.266207 16.200942 19.776894 7.383000 -0.000000 -71.759300
-12.393093 16.947954 0.207244 4.441573 77.519396 25.388755 -8.464406 -0.220466 -0.793239 -18.085236 0.481605 -40.972725 -2.807635 0.266159 21.065613 1.535603 7.943599 -4.584153 0.823700 0.000000 -13.038100 11.823711 -1.945217 -2.729593 2.171149 -3.925404 -17.304947 -0.225243 -3.859179 51.162748 0.079558 15.215004 21.393915 7.410600 0.000000 -69.406300
-12.270452 16.973831 0.185896 4.129077 77.349125 24.979467 -8.497616 -0.183468 -0.922977 -18.225231 0.940825 -40.189251 -2.842537 0.231551 20.720592 1.503314 7.772324 -4.742872 0.769201 -0.000000 -12.788900 11.858307 -1.821699 -2.737070 2.094906 -3.803489 -18.416067 -0.401015 -3.938423 53.094196 -0.106339 13.885429 22.625715 7.124600 -0.000000 -67.214400
-12.148825 16.999225 0.164860 3.892709 77.224770 24.638257 -8.531626 -0.143624 -1.046926 -18.372841 1.397657 -39.406086 -2.879354 0.196770 20.361041 1.463603 7.567681 -4.864275 0.719300 0.000000 -12.564800 11.886419 -1.696597 -2.757542 2.037444 -3.749587 -19.507805 -0.561667 -4.016065 54.926989 -0.291693 12.203092 23.427133 6.520900 -0.000000 -65.366600
-12.028567 17.024154 0.144565 3.788327 77.154214 24.415005 -8.560974 -0.101818 -1.162302 -18.529937 1.813815 -38.597278 -2.916502 0.158238 19.976159 1.422786 7.358573 -4.977177 0.672000 -0.000000 -12.394400 11.911915 -1.568719 -2.796945 1.981447 -3.774359 -20.570886 -0.709865 -4.096127 56.656285 -0.477630 10.191587 23.769202 5.630400 0.000000 -63.927799
-11.909301 17.048533 0.124570 3.740845 77.143922 24.248413 -8.589458 -0.060101 -1.261082 -18.672023 2.169743 -37.787351 -2.951394 0.117303 19.590205 1.383880 7.147934 -5.117305 0.622001 -0.000000 -12.282800 11.928719 -1.439504 -2.852645 1.953015 -3.866872 -21.615304 -0.847971 -4.177240 58.276068 -0.664213 7.898226 23.631991 4.510200 -0.000001 -62.827000
-11.791524 17.072333 0.105103 3.788325 77.194891 24.167940 -8.613135 -0.019869 -1.344884 -18.801192 2.443249 -36.943316 -2.982796 0.070748 19.181347 1.350882 6.959263 -5.292539 0.570100 0.000000 -12.236900 11.940031 -1.307832 -2.928964 1.935654 -4.025924 -22.625686 -0.975557 -4.261909 59.776849 -0.851275 5.415589 23.019887 3.253200 -0.000001 -61.914600
-11.675003 17.095413 0.085605 3.847863 77.304702 24.101609 -8.636962 0.017022 -1.409798 -18.896941 2.633469 -36.087134 -3.008909 0.020498 18.764800 1.324120 6.788642 -5.513541 0.514400 0.000000 -12.243500 11.940103 -1.175521 -3.020320 1.953171 -4.230337 -23.610055 -1.092053 -4.347003 61.149267 -1.037499 2.848040 21.965139 1.961900 0.000000 -60.989900
-11.559721 17.117638 0.065826 3.879360 77.468351 24.012406 -8.663291 0.049445 -1.456922 -18.951824 2.746634 -35.223444 -3.028957 -0.032498 18.341859 1.303100 6.634691 -5.774168 0.455800 -0.000000 -12.285300 11.927121 -1.044130 -3.122410 2.011769 -4.461404 -24.567919 -1.195292 -4.430495 62.382808 -1.220085 0.318354 20.528193 0.742100 -0.000000 -59.822500
-11.445858 17.138925 0.045671 3.864430 77.676531 23.878913 -8.692964 0.076556 -1.491447 -18.965021 2.795394 -34.343815 -3.042701 -0.087846 17.903010 1.286658 6.497244 -6.056407 0.396600 0.000000 -12.345900 11.901474 -0.914600 -3.232086 2.107458 -4.700332 -25.489987 -1.282441 -4.510453 63.463107 -1.395640 -2.058102 18.805889 -0.319399 -0.000000 -58.368900
